<mxfile host="65bd71144e">
    <diagram id="p_g05UPix1uCBPENH2H9" name="Page-1">
        <mxGraphModel dx="1762" dy="422" grid="1" gridSize="10" guides="1" tooltips="1" connect="1" arrows="1" fold="1" page="1" pageScale="1" pageWidth="850" pageHeight="1100" math="0" shadow="0">
            <root>
                <mxCell id="0"/>
                <mxCell id="1" parent="0"/>
                <mxCell id="62" value="" style="rounded=1;whiteSpace=wrap;html=1;fontFamily=Helvetica;fontSize=12;fillColor=none;" parent="1" vertex="1">
                    <mxGeometry x="375" y="505" width="300" height="60" as="geometry"/>
                </mxCell>
                <mxCell id="75" value="" style="rounded=1;whiteSpace=wrap;html=1;fontFamily=Helvetica;fontSize=12;fillColor=none;" parent="1" vertex="1">
                    <mxGeometry x="710" y="505" width="320" height="60" as="geometry"/>
                </mxCell>
                <mxCell id="46" value="" style="rounded=1;whiteSpace=wrap;html=1;fontFamily=Helvetica;fontSize=12;fillColor=none;" parent="1" vertex="1">
                    <mxGeometry x="-270" y="495" width="610" height="70" as="geometry"/>
                </mxCell>
                <mxCell id="37" value="" style="rounded=1;whiteSpace=wrap;html=1;fontFamily=Helvetica;fontSize=12;fillColor=none;" parent="1" vertex="1">
                    <mxGeometry x="310" y="335" width="440" height="60" as="geometry"/>
                </mxCell>
                <mxCell id="6" value="" style="rounded=1;whiteSpace=wrap;html=1;fillColor=none;" parent="1" vertex="1">
                    <mxGeometry x="265" y="75" width="495" height="60" as="geometry"/>
                </mxCell>
                <mxCell id="8" value="" style="edgeStyle=none;html=1;" parent="1" source="2" target="6" edge="1">
                    <mxGeometry relative="1" as="geometry"/>
                </mxCell>
                <mxCell id="2" value="endpoint" style="rounded=1;whiteSpace=wrap;html=1;fillColor=#76608a;fontColor=#ffffff;strokeColor=#432D57;" parent="1" vertex="1">
                    <mxGeometry x="482.5" y="10" width="60" height="30" as="geometry"/>
                </mxCell>
                <mxCell id="3" value="do_preliminary_checks" style="rounded=1;whiteSpace=wrap;html=1;fillColor=#f0a30a;fontColor=#000000;strokeColor=#BD7000;" parent="1" vertex="1">
                    <mxGeometry x="280" y="90" width="130" height="30" as="geometry"/>
                </mxCell>
                <mxCell id="20" value="" style="edgeStyle=none;html=1;fontFamily=Helvetica;fontSize=12;" parent="1" source="4" target="19" edge="1">
                    <mxGeometry relative="1" as="geometry"/>
                </mxCell>
                <mxCell id="4" value="preliminary_checks_result" style="rounded=1;whiteSpace=wrap;html=1;fillColor=#f0a30a;fontColor=#000000;strokeColor=#BD7000;" parent="1" vertex="1">
                    <mxGeometry x="560" y="90" width="150" height="30" as="geometry"/>
                </mxCell>
                <mxCell id="9" value="" style="endArrow=classic;html=1;exitX=1;exitY=0.5;exitDx=0;exitDy=0;entryX=0;entryY=0.5;entryDx=0;entryDy=0;" parent="1" source="3" target="4" edge="1">
                    <mxGeometry width="50" height="50" relative="1" as="geometry">
                        <mxPoint x="400" y="210" as="sourcePoint"/>
                        <mxPoint x="450" y="160" as="targetPoint"/>
                    </mxGeometry>
                </mxCell>
                <mxCell id="15" value="" style="edgeStyle=none;html=1;fontFamily=Helvetica;fontSize=12;" parent="1" source="10" target="12" edge="1">
                    <mxGeometry relative="1" as="geometry"/>
                </mxCell>
                <mxCell id="10" value="&lt;div style=&quot;color: rgb(212, 212, 212); background-color: rgb(30, 30, 30); font-family: Consolas, &amp;quot;Courier New&amp;quot;, monospace; line-height: 19px;&quot;&gt;can_change_doctor == &lt;span style=&quot;color: #569cd6;&quot;&gt;None&lt;/span&gt;&lt;/div&gt;" style="shape=hexagon;perimeter=hexagonPerimeter2;whiteSpace=wrap;html=1;fixedSize=1;fillColor=#1E1E1E;" parent="1" vertex="1">
                    <mxGeometry x="210" y="220" width="200" height="30" as="geometry"/>
                </mxCell>
                <mxCell id="12" value="do_preliminary_checks" style="rounded=1;whiteSpace=wrap;html=1;fillColor=#6d8764;fontColor=#ffffff;strokeColor=#3A5431;" parent="1" vertex="1">
                    <mxGeometry x="245" y="280" width="130" height="30" as="geometry"/>
                </mxCell>
                <mxCell id="17" value="" style="endArrow=classic;html=1;fontFamily=Helvetica;fontSize=12;exitX=0.5;exitY=1;exitDx=0;exitDy=0;entryX=0.5;entryY=0;entryDx=0;entryDy=0;" parent="1" source="3" target="10" edge="1">
                    <mxGeometry width="50" height="50" relative="1" as="geometry">
                        <mxPoint x="400" y="200" as="sourcePoint"/>
                        <mxPoint x="450" y="150" as="targetPoint"/>
                    </mxGeometry>
                </mxCell>
                <mxCell id="24" value="" style="edgeStyle=none;html=1;fontFamily=Helvetica;fontSize=12;" parent="1" source="18" target="23" edge="1">
                    <mxGeometry relative="1" as="geometry"/>
                </mxCell>
                <mxCell id="18" value="preliminary_checks_success" style="rounded=1;whiteSpace=wrap;html=1;fontFamily=Helvetica;fontSize=12;fillColor=#f0a30a;fontColor=#000000;strokeColor=#BD7000;" parent="1" vertex="1">
                    <mxGeometry x="450" y="160" width="160" height="30" as="geometry"/>
                </mxCell>
                <mxCell id="26" value="" style="edgeStyle=none;html=1;fontFamily=Helvetica;fontSize=12;" parent="1" source="19" target="25" edge="1">
                    <mxGeometry relative="1" as="geometry"/>
                </mxCell>
                <mxCell id="19" value="preliminary_checks_no_success" style="rounded=1;whiteSpace=wrap;html=1;fontFamily=Helvetica;fontSize=12;fillColor=#f0a30a;fontColor=#000000;strokeColor=#BD7000;" parent="1" vertex="1">
                    <mxGeometry x="660" y="160" width="180" height="30" as="geometry"/>
                </mxCell>
                <mxCell id="22" value="" style="endArrow=classic;html=1;fontFamily=Helvetica;fontSize=12;exitX=0.25;exitY=1;exitDx=0;exitDy=0;entryX=0.5;entryY=0;entryDx=0;entryDy=0;" parent="1" source="4" target="18" edge="1">
                    <mxGeometry width="50" height="50" relative="1" as="geometry">
                        <mxPoint x="520" y="200" as="sourcePoint"/>
                        <mxPoint x="570" y="150" as="targetPoint"/>
                    </mxGeometry>
                </mxCell>
                <mxCell id="23" value="&lt;div style=&quot;color: rgb(212, 212, 212); background-color: rgb(30, 30, 30); font-family: Consolas, &amp;quot;Courier New&amp;quot;, monospace; line-height: 19px;&quot;&gt;can_change_doctor == &lt;span style=&quot;color: #ce9178;&quot;&gt;'SI'&lt;/span&gt;&lt;/div&gt;" style="shape=hexagon;perimeter=hexagonPerimeter2;whiteSpace=wrap;html=1;fixedSize=1;fontFamily=Helvetica;fontSize=12;fillColor=#1E1E1E;" parent="1" vertex="1">
                    <mxGeometry x="435" y="220" width="190" height="30" as="geometry"/>
                </mxCell>
                <mxCell id="28" value="" style="edgeStyle=none;html=1;fontFamily=Helvetica;fontSize=12;" parent="1" source="25" target="27" edge="1">
                    <mxGeometry relative="1" as="geometry"/>
                </mxCell>
                <mxCell id="25" value="&lt;div style=&quot;color: rgb(212, 212, 212); background-color: rgb(30, 30, 30); font-family: Consolas, &amp;quot;Courier New&amp;quot;, monospace; line-height: 19px;&quot;&gt;can_change_doctor == &lt;span style=&quot;color: #ce9178;&quot;&gt;'NO'&lt;/span&gt;&lt;/div&gt;" style="shape=hexagon;perimeter=hexagonPerimeter2;whiteSpace=wrap;html=1;fixedSize=1;fontFamily=Helvetica;fontSize=12;fillColor=#1E1E1E;" parent="1" vertex="1">
                    <mxGeometry x="655" y="220" width="190" height="30" as="geometry"/>
                </mxCell>
                <mxCell id="27" value="do_nothing" style="rounded=1;whiteSpace=wrap;html=1;fontFamily=Helvetica;fontSize=12;fillColor=#6d8764;fontColor=#ffffff;strokeColor=#3A5431;" parent="1" vertex="1">
                    <mxGeometry x="710" y="280" width="80" height="30" as="geometry"/>
                </mxCell>
                <mxCell id="29" value="method" style="rounded=1;whiteSpace=wrap;html=1;fontFamily=Helvetica;fontSize=12;fillColor=#f0a30a;fontColor=#000000;strokeColor=#BD7000;" parent="1" vertex="1">
                    <mxGeometry x="-210" y="20" width="60" height="30" as="geometry"/>
                </mxCell>
                <mxCell id="30" value="&lt;span style=&quot;color: rgb(212, 212, 212); font-family: Consolas, &amp;quot;Courier New&amp;quot;, monospace; background-color: rgb(30, 30, 30);&quot;&gt;condition&lt;/span&gt;" style="shape=hexagon;perimeter=hexagonPerimeter2;whiteSpace=wrap;html=1;fixedSize=1;fontFamily=Helvetica;fontSize=12;fillColor=#1E1E1E;" parent="1" vertex="1">
                    <mxGeometry x="-220" y="65" width="80" height="25" as="geometry"/>
                </mxCell>
                <mxCell id="31" value="action" style="rounded=1;whiteSpace=wrap;html=1;fontFamily=Helvetica;fontSize=12;fillColor=#6d8764;fontColor=#ffffff;strokeColor=#3A5431;" parent="1" vertex="1">
                    <mxGeometry x="-210" y="105" width="60" height="25" as="geometry"/>
                </mxCell>
                <mxCell id="35" value="" style="edgeStyle=none;html=1;fontFamily=Helvetica;fontSize=12;" parent="1" source="32" target="33" edge="1">
                    <mxGeometry relative="1" as="geometry"/>
                </mxCell>
                <mxCell id="47" value="" style="edgeStyle=none;html=1;fontFamily=Helvetica;fontSize=12;entryX=0.5;entryY=0;entryDx=0;entryDy=0;" parent="1" source="32" target="126" edge="1">
                    <mxGeometry relative="1" as="geometry"/>
                </mxCell>
                <mxCell id="53" value="" style="edgeStyle=none;html=1;fontFamily=Helvetica;fontSize=12;" parent="1" source="32" target="52" edge="1">
                    <mxGeometry relative="1" as="geometry"/>
                </mxCell>
                <mxCell id="54" value="" style="edgeStyle=none;html=1;fontFamily=Helvetica;fontSize=12;entryX=0.5;entryY=0;entryDx=0;entryDy=0;" parent="1" source="32" target="51" edge="1">
                    <mxGeometry relative="1" as="geometry"/>
                </mxCell>
                <mxCell id="32" value="collect_requirements" style="rounded=1;whiteSpace=wrap;html=1;fontFamily=Helvetica;fontSize=12;fillColor=#f0a30a;fontColor=#000000;strokeColor=#BD7000;" parent="1" vertex="1">
                    <mxGeometry x="325" y="350" width="120" height="30" as="geometry"/>
                </mxCell>
                <mxCell id="36" value="" style="edgeStyle=none;html=1;fontFamily=Helvetica;fontSize=12;" parent="1" source="33" target="34" edge="1">
                    <mxGeometry relative="1" as="geometry"/>
                </mxCell>
                <mxCell id="65" value="" style="edgeStyle=none;html=1;fontFamily=Helvetica;fontSize=12;" parent="1" source="33" target="63" edge="1">
                    <mxGeometry relative="1" as="geometry"/>
                </mxCell>
                <mxCell id="33" value="choose_doctor" style="rounded=1;whiteSpace=wrap;html=1;fontFamily=Helvetica;fontSize=12;fillColor=#f0a30a;fontColor=#000000;strokeColor=#BD7000;" parent="1" vertex="1">
                    <mxGeometry x="490" y="350" width="90" height="30" as="geometry"/>
                </mxCell>
                <mxCell id="78" value="" style="edgeStyle=none;html=1;fontFamily=Helvetica;fontSize=12;entryX=0.375;entryY=0;entryDx=0;entryDy=0;" parent="1" source="34" target="76" edge="1">
                    <mxGeometry relative="1" as="geometry"/>
                </mxCell>
                <mxCell id="34" value="m_change_doctor" style="rounded=1;whiteSpace=wrap;html=1;fontFamily=Helvetica;fontSize=12;fillColor=#f0a30a;fontColor=#000000;strokeColor=#BD7000;" parent="1" vertex="1">
                    <mxGeometry x="620" y="350" width="112.5" height="30" as="geometry"/>
                </mxCell>
                <mxCell id="40" value="" style="endArrow=classic;html=1;fontFamily=Helvetica;fontSize=12;exitX=0.5;exitY=1;exitDx=0;exitDy=0;entryX=0.5;entryY=0;entryDx=0;entryDy=0;" parent="1" source="23" target="37" edge="1">
                    <mxGeometry width="50" height="50" relative="1" as="geometry">
                        <mxPoint x="500" y="370" as="sourcePoint"/>
                        <mxPoint x="550" y="320" as="targetPoint"/>
                    </mxGeometry>
                </mxCell>
                <mxCell id="99" value="" style="edgeStyle=none;html=1;fontFamily=Helvetica;fontSize=12;" parent="1" source="41" target="97" edge="1">
                    <mxGeometry relative="1" as="geometry"/>
                </mxCell>
                <mxCell id="100" value="" style="edgeStyle=none;html=1;fontFamily=Helvetica;fontSize=12;entryX=0.5;entryY=0;entryDx=0;entryDy=0;" parent="1" source="41" target="98" edge="1">
                    <mxGeometry relative="1" as="geometry"/>
                </mxCell>
                <mxCell id="127" value="" style="edgeStyle=none;html=1;" edge="1" parent="1" source="41" target="125">
                    <mxGeometry relative="1" as="geometry"/>
                </mxCell>
                <mxCell id="41" value="m_doctor_type" style="rounded=1;whiteSpace=wrap;html=1;fontFamily=Helvetica;fontSize=12;fillColor=#f0a30a;fontColor=#000000;strokeColor=#BD7000;" parent="1" vertex="1">
                    <mxGeometry x="-252.62" y="510" width="100" height="30" as="geometry"/>
                </mxCell>
                <mxCell id="45" value="" style="edgeStyle=none;html=1;fontFamily=Helvetica;fontSize=12;" parent="1" source="42" target="43" edge="1">
                    <mxGeometry relative="1" as="geometry"/>
                </mxCell>
                <mxCell id="42" value="ask_doctor_name" style="rounded=1;whiteSpace=wrap;html=1;fontFamily=Helvetica;fontSize=12;fillColor=#6d8764;fontColor=#ffffff;strokeColor=#3A5431;" parent="1" vertex="1">
                    <mxGeometry x="82.5" y="510" width="105" height="30" as="geometry"/>
                </mxCell>
                <mxCell id="43" value="ask_zona" style="rounded=1;whiteSpace=wrap;html=1;fontFamily=Helvetica;fontSize=12;fillColor=#6d8764;fontColor=#ffffff;strokeColor=#3A5431;" parent="1" vertex="1">
                    <mxGeometry x="252.5" y="510" width="65" height="30" as="geometry"/>
                </mxCell>
                <mxCell id="49" value="Apply as many as possible (not necessarily all of them)" style="text;html=1;strokeColor=none;fillColor=none;align=center;verticalAlign=middle;whiteSpace=wrap;rounded=0;fontFamily=Helvetica;fontSize=12;" parent="1" vertex="1">
                    <mxGeometry x="35" y="540" width="300" height="30" as="geometry"/>
                </mxCell>
                <mxCell id="55" value="" style="edgeStyle=none;html=1;fontFamily=Helvetica;fontSize=12;" parent="1" source="50" target="41" edge="1">
                    <mxGeometry relative="1" as="geometry"/>
                </mxCell>
                <mxCell id="50" value="&lt;div style=&quot;color: rgb(212, 212, 212); background-color: rgb(30, 30, 30); font-family: Consolas, &amp;quot;Courier New&amp;quot;, monospace; line-height: 19px;&quot;&gt;doctor_type == &lt;span style=&quot;color: #569cd6;&quot;&gt;None&lt;/span&gt;&lt;/div&gt;" style="shape=hexagon;perimeter=hexagonPerimeter2;whiteSpace=wrap;html=1;fixedSize=1;fontFamily=Helvetica;fontSize=12;fillColor=#1E1E1E;" parent="1" vertex="1">
                    <mxGeometry x="-277.62" y="435" width="150" height="30" as="geometry"/>
                </mxCell>
                <mxCell id="56" value="" style="edgeStyle=none;html=1;fontFamily=Helvetica;fontSize=12;entryX=0.5;entryY=0;entryDx=0;entryDy=0;exitX=0.5;exitY=1;exitDx=0;exitDy=0;" parent="1" source="126" target="125" edge="1">
                    <mxGeometry relative="1" as="geometry">
                        <mxPoint x="-13.249999999999773" y="465" as="sourcePoint"/>
                        <mxPoint x="-13.249999999999773" y="510" as="targetPoint"/>
                    </mxGeometry>
                </mxCell>
                <mxCell id="124" value="" style="edgeStyle=none;html=1;entryX=0.5;entryY=0;entryDx=0;entryDy=0;exitX=0.5;exitY=1;exitDx=0;exitDy=0;" edge="1" parent="1" source="51" target="42">
                    <mxGeometry relative="1" as="geometry"/>
                </mxCell>
                <mxCell id="51" value="&lt;div style=&quot;color: rgb(212, 212, 212); background-color: rgb(30, 30, 30); font-family: Consolas, &amp;quot;Courier New&amp;quot;, monospace; line-height: 19px;&quot;&gt;&lt;div style=&quot;line-height: 19px;&quot;&gt;doctor_surname == &lt;span style=&quot;color: #569cd6;&quot;&gt;None&lt;/span&gt;&lt;/div&gt;&lt;/div&gt;" style="shape=hexagon;perimeter=hexagonPerimeter2;whiteSpace=wrap;html=1;fixedSize=1;fontFamily=Helvetica;fontSize=12;fillColor=#1E1E1E;" parent="1" vertex="1">
                    <mxGeometry x="50" y="435" width="170" height="30" as="geometry"/>
                </mxCell>
                <mxCell id="57" value="" style="edgeStyle=none;html=1;fontFamily=Helvetica;fontSize=12;entryX=0.5;entryY=0;entryDx=0;entryDy=0;" parent="1" source="52" target="43" edge="1">
                    <mxGeometry relative="1" as="geometry"/>
                </mxCell>
                <mxCell id="52" value="&lt;div style=&quot;color: rgb(212, 212, 212); background-color: rgb(30, 30, 30); font-family: Consolas, &amp;quot;Courier New&amp;quot;, monospace; line-height: 19px;&quot;&gt;&lt;div style=&quot;line-height: 19px;&quot;&gt;zona == &lt;span style=&quot;color: rgb(86, 156, 214);&quot;&gt;None&lt;/span&gt;&lt;/div&gt;&lt;/div&gt;" style="shape=hexagon;perimeter=hexagonPerimeter2;whiteSpace=wrap;html=1;fixedSize=1;fontFamily=Helvetica;fontSize=12;fillColor=#1E1E1E;" parent="1" vertex="1">
                    <mxGeometry x="230" y="435" width="110" height="30" as="geometry"/>
                </mxCell>
                <mxCell id="61" value="" style="edgeStyle=none;html=1;fontFamily=Helvetica;fontSize=12;" parent="1" source="59" target="60" edge="1">
                    <mxGeometry relative="1" as="geometry"/>
                </mxCell>
                <mxCell id="59" value="get_doctor_list" style="rounded=1;whiteSpace=wrap;html=1;fontFamily=Helvetica;fontSize=12;fillColor=#6d8764;fontColor=#ffffff;strokeColor=#3A5431;" parent="1" vertex="1">
                    <mxGeometry x="385" y="520" width="97.5" height="30" as="geometry"/>
                </mxCell>
                <mxCell id="82" value="" style="edgeStyle=none;html=1;fontFamily=Helvetica;fontSize=12;" parent="1" source="60" target="81" edge="1">
                    <mxGeometry relative="1" as="geometry"/>
                </mxCell>
                <mxCell id="83" value="" style="edgeStyle=none;html=1;fontFamily=Helvetica;fontSize=12;entryX=0.5;entryY=0;entryDx=0;entryDy=0;" parent="1" source="60" target="80" edge="1">
                    <mxGeometry relative="1" as="geometry"/>
                </mxCell>
                <mxCell id="60" value="process_search_results" style="rounded=1;whiteSpace=wrap;html=1;fontFamily=Helvetica;fontSize=12;fillColor=#f0a30a;fontColor=#000000;strokeColor=#BD7000;" parent="1" vertex="1">
                    <mxGeometry x="525" y="520" width="140" height="30" as="geometry"/>
                </mxCell>
                <mxCell id="71" value="" style="edgeStyle=none;html=1;fontFamily=Helvetica;fontSize=12;" parent="1" source="63" target="62" edge="1">
                    <mxGeometry relative="1" as="geometry"/>
                </mxCell>
                <mxCell id="63" value="&lt;div style=&quot;color: rgb(212, 212, 212); background-color: rgb(30, 30, 30); font-family: Consolas, &amp;quot;Courier New&amp;quot;, monospace; line-height: 19px;&quot;&gt;chosen_doctor == &lt;span style=&quot;color: #569cd6;&quot;&gt;None&lt;br&gt;&lt;/span&gt;&lt;div style=&quot;line-height: 19px;&quot;&gt;doctor_type != &lt;span style=&quot;color: #ce9178;&quot;&gt;''&lt;/span&gt;&lt;/div&gt;&lt;div style=&quot;line-height: 19px;&quot;&gt;&lt;div style=&quot;line-height: 19px;&quot;&gt;doctor_surname != &lt;span style=&quot;color: #ce9178;&quot;&gt;''&lt;/span&gt;&lt;/div&gt;&lt;/div&gt;&lt;/div&gt;" style="shape=hexagon;perimeter=hexagonPerimeter2;whiteSpace=wrap;html=1;fixedSize=1;fontFamily=Helvetica;fontSize=12;fillColor=#1E1E1E;" parent="1" vertex="1">
                    <mxGeometry x="362.5" y="410" width="177.5" height="60" as="geometry"/>
                </mxCell>
                <mxCell id="70" value="" style="edgeStyle=none;html=1;fontFamily=Helvetica;fontSize=12;" parent="1" source="64" target="62" edge="1">
                    <mxGeometry relative="1" as="geometry"/>
                </mxCell>
                <mxCell id="64" value="&lt;div style=&quot;color: rgb(212, 212, 212); background-color: rgb(30, 30, 30); font-family: Consolas, &amp;quot;Courier New&amp;quot;, monospace; line-height: 19px;&quot;&gt;chosen_doctor == &lt;span style=&quot;color: #569cd6;&quot;&gt;None&lt;br&gt;&lt;/span&gt;&lt;div style=&quot;line-height: 19px;&quot;&gt;&lt;div style=&quot;line-height: 19px;&quot;&gt;comune != &lt;span style=&quot;color: #ce9178;&quot;&gt;''&lt;/span&gt;&lt;/div&gt;&lt;/div&gt;&lt;div style=&quot;line-height: 19px;&quot;&gt;&lt;div style=&quot;line-height: 19px;&quot;&gt;&lt;span style=&quot;&quot;&gt;doctor_type&lt;/span&gt;&amp;nbsp;!= &lt;span style=&quot;color: #ce9178;&quot;&gt;''&lt;/span&gt;&lt;/div&gt;&lt;/div&gt;&lt;/div&gt;" style="shape=hexagon;perimeter=hexagonPerimeter2;whiteSpace=wrap;html=1;fixedSize=1;fontFamily=Helvetica;fontSize=12;fillColor=#1E1E1E;" parent="1" vertex="1">
                    <mxGeometry x="555" y="410" width="177.5" height="60" as="geometry"/>
                </mxCell>
                <mxCell id="69" value="" style="endArrow=classic;html=1;fontFamily=Helvetica;fontSize=12;exitX=0.75;exitY=1;exitDx=0;exitDy=0;entryX=0.5;entryY=0;entryDx=0;entryDy=0;" parent="1" source="33" target="64" edge="1">
                    <mxGeometry width="50" height="50" relative="1" as="geometry">
                        <mxPoint x="410" y="520" as="sourcePoint"/>
                        <mxPoint x="460" y="470" as="targetPoint"/>
                    </mxGeometry>
                </mxCell>
                <mxCell id="74" value="" style="edgeStyle=none;html=1;fontFamily=Helvetica;fontSize=12;" parent="1" source="72" target="73" edge="1">
                    <mxGeometry relative="1" as="geometry"/>
                </mxCell>
                <mxCell id="72" value="confirm_choice" style="rounded=1;whiteSpace=wrap;html=1;fontFamily=Helvetica;fontSize=12;fillColor=#6d8764;fontColor=#ffffff;strokeColor=#3A5431;" parent="1" vertex="1">
                    <mxGeometry x="720" y="517.5" width="100" height="35" as="geometry"/>
                </mxCell>
                <mxCell id="116" value="" style="edgeStyle=none;html=1;fontFamily=Helvetica;fontSize=12;" parent="1" source="73" target="110" edge="1">
                    <mxGeometry relative="1" as="geometry"/>
                </mxCell>
                <mxCell id="117" value="" style="edgeStyle=none;html=1;fontFamily=Helvetica;fontSize=12;entryX=0.5;entryY=0;entryDx=0;entryDy=0;" parent="1" source="73" target="111" edge="1">
                    <mxGeometry relative="1" as="geometry"/>
                </mxCell>
                <mxCell id="73" value="process_confirmed_choice" style="rounded=1;whiteSpace=wrap;html=1;fontFamily=Helvetica;fontSize=12;fillColor=#f0a30a;fontColor=#000000;strokeColor=#BD7000;" parent="1" vertex="1">
                    <mxGeometry x="860" y="520" width="160" height="30" as="geometry"/>
                </mxCell>
                <mxCell id="77" value="" style="edgeStyle=none;html=1;fontFamily=Helvetica;fontSize=12;" parent="1" source="76" target="75" edge="1">
                    <mxGeometry relative="1" as="geometry"/>
                </mxCell>
                <mxCell id="76" value="&lt;div style=&quot;background-color: rgb(30, 30, 30); font-family: Consolas, &amp;quot;Courier New&amp;quot;, monospace; line-height: 19px;&quot;&gt;&lt;font style=&quot;font-size: 12px;&quot; color=&quot;#d4d4d4&quot;&gt;chosen_doctor&lt;/font&gt;&lt;br&gt;&lt;div style=&quot;line-height: 19px;&quot;&gt;&lt;font style=&quot;font-size: 12px;&quot; color=&quot;#d4d4d4&quot;&gt;doctor_name != &lt;/font&gt;&lt;span style=&quot;color: rgb(206, 145, 120);&quot;&gt;''&lt;/span&gt;&lt;font style=&quot;font-size: 12px;&quot; color=&quot;#d4d4d4&quot;&gt;&lt;br&gt;&lt;/font&gt;&lt;font style=&quot;font-size: 12px;&quot; color=&quot;#d4d4d4&quot;&gt;doctor_surname != &lt;/font&gt;&lt;font style=&quot;font-size: 12px;&quot; color=&quot;#ce9178&quot;&gt;''&lt;/font&gt;&lt;br&gt;&lt;font style=&quot;font-size: 12px;&quot; color=&quot;#d4d4d4&quot;&gt;doctor_type&lt;/font&gt;&lt;/div&gt;&lt;/div&gt;" style="shape=hexagon;perimeter=hexagonPerimeter2;whiteSpace=wrap;html=1;fixedSize=1;fontFamily=Helvetica;fontSize=12;fillColor=#1E1E1E;" parent="1" vertex="1">
                    <mxGeometry x="787.5" y="395" width="165" height="80" as="geometry"/>
                </mxCell>
                <mxCell id="85" value="" style="edgeStyle=none;html=1;fontFamily=Helvetica;fontSize=12;" parent="1" source="80" target="84" edge="1">
                    <mxGeometry relative="1" as="geometry"/>
                </mxCell>
                <mxCell id="80" value="successful_search" style="rounded=1;whiteSpace=wrap;html=1;fontFamily=Helvetica;fontSize=12;fillColor=#f0a30a;fontColor=#000000;strokeColor=#BD7000;" parent="1" vertex="1">
                    <mxGeometry x="465" y="620" width="110" height="30" as="geometry"/>
                </mxCell>
                <mxCell id="88" value="" style="edgeStyle=none;html=1;fontFamily=Helvetica;fontSize=12;" parent="1" source="81" target="86" edge="1">
                    <mxGeometry relative="1" as="geometry"/>
                </mxCell>
                <mxCell id="81" value="unsuccessful_search" style="rounded=1;whiteSpace=wrap;html=1;fontFamily=Helvetica;fontSize=12;fillColor=#f0a30a;fontColor=#000000;strokeColor=#BD7000;" parent="1" vertex="1">
                    <mxGeometry x="605" y="620" width="120" height="30" as="geometry"/>
                </mxCell>
                <mxCell id="90" value="" style="edgeStyle=none;html=1;fontFamily=Helvetica;fontSize=12;" parent="1" source="84" target="89" edge="1">
                    <mxGeometry relative="1" as="geometry"/>
                </mxCell>
                <mxCell id="84" value="&lt;div style=&quot;color: rgb(212, 212, 212); background-color: rgb(30, 30, 30); font-family: Consolas, &amp;quot;Courier New&amp;quot;, monospace; line-height: 19px;&quot;&gt;chosen_doctor == &lt;span style=&quot;color: #569cd6;&quot;&gt;None&lt;br&gt;&lt;/span&gt;search_result != []&lt;/div&gt;" style="shape=hexagon;perimeter=hexagonPerimeter2;whiteSpace=wrap;html=1;fixedSize=1;fontFamily=Helvetica;fontSize=12;fillColor=#1E1E1E;" parent="1" vertex="1">
                    <mxGeometry x="415" y="690" width="165" height="50" as="geometry"/>
                </mxCell>
                <mxCell id="95" value="" style="edgeStyle=none;html=1;fontFamily=Helvetica;fontSize=12;" parent="1" source="86" target="94" edge="1">
                    <mxGeometry relative="1" as="geometry"/>
                </mxCell>
                <mxCell id="86" value="&lt;div style=&quot;color: rgb(212, 212, 212); background-color: rgb(30, 30, 30); font-family: Consolas, &amp;quot;Courier New&amp;quot;, monospace; line-height: 19px;&quot;&gt;chosen_doctor == &lt;span style=&quot;color: #569cd6;&quot;&gt;None&lt;br&gt;&lt;/span&gt;search_result == []&lt;/div&gt;" style="shape=hexagon;perimeter=hexagonPerimeter2;whiteSpace=wrap;html=1;fixedSize=1;fontFamily=Helvetica;fontSize=12;fillColor=#1E1E1E;" parent="1" vertex="1">
                    <mxGeometry x="605" y="690" width="165" height="50" as="geometry"/>
                </mxCell>
                <mxCell id="89" value="ask_choose_doctor" style="rounded=1;whiteSpace=wrap;html=1;fontFamily=Helvetica;fontSize=12;fillColor=#6d8764;fontColor=#ffffff;strokeColor=#3A5431;" parent="1" vertex="1">
                    <mxGeometry x="437.5" y="790" width="120" height="30" as="geometry"/>
                </mxCell>
                <mxCell id="94" value="preliminary_checks_success" style="rounded=1;whiteSpace=wrap;html=1;fontFamily=Helvetica;fontSize=12;fillColor=#f0a30a;fontColor=#000000;strokeColor=#BD7000;" parent="1" vertex="1">
                    <mxGeometry x="607.5" y="790" width="160" height="30" as="geometry"/>
                </mxCell>
                <mxCell id="96" value="" style="endArrow=classic;html=1;fontFamily=Helvetica;fontSize=12;exitX=0.5;exitY=1;exitDx=0;exitDy=0;" parent="1" source="94" edge="1">
                    <mxGeometry width="50" height="50" relative="1" as="geometry">
                        <mxPoint x="500" y="700" as="sourcePoint"/>
                        <mxPoint x="688" y="870" as="targetPoint"/>
                    </mxGeometry>
                </mxCell>
                <mxCell id="103" value="" style="edgeStyle=none;html=1;fontFamily=Helvetica;fontSize=12;" parent="1" source="97" target="101" edge="1">
                    <mxGeometry relative="1" as="geometry"/>
                </mxCell>
                <mxCell id="97" value="m_retrieve_doctor_type" style="rounded=1;whiteSpace=wrap;html=1;fontFamily=Helvetica;fontSize=12;fillColor=#f0a30a;fontColor=#000000;strokeColor=#BD7000;" parent="1" vertex="1">
                    <mxGeometry x="-348.25" y="620" width="142.5" height="30" as="geometry"/>
                </mxCell>
                <mxCell id="104" value="" style="edgeStyle=none;html=1;fontFamily=Helvetica;fontSize=12;" parent="1" source="98" target="102" edge="1">
                    <mxGeometry relative="1" as="geometry"/>
                </mxCell>
                <mxCell id="98" value="m_ask_doctor_type" style="rounded=1;whiteSpace=wrap;html=1;fontFamily=Helvetica;fontSize=12;fillColor=#f0a30a;fontColor=#000000;strokeColor=#BD7000;" parent="1" vertex="1">
                    <mxGeometry x="-133.25" y="620" width="117.5" height="30" as="geometry"/>
                </mxCell>
                <mxCell id="107" value="" style="edgeStyle=none;html=1;fontFamily=Helvetica;fontSize=12;" parent="1" source="101" target="105" edge="1">
                    <mxGeometry relative="1" as="geometry"/>
                </mxCell>
                <mxCell id="101" value="&lt;div style=&quot;color: rgb(212, 212, 212); background-color: rgb(30, 30, 30); font-family: Consolas, &amp;quot;Courier New&amp;quot;, monospace; line-height: 19px;&quot;&gt;doctor_type == &lt;span style=&quot;color: #569cd6;&quot;&gt;None&lt;/span&gt;&lt;/div&gt;" style="shape=hexagon;perimeter=hexagonPerimeter2;whiteSpace=wrap;html=1;fixedSize=1;fontFamily=Helvetica;fontSize=12;fillColor=#1E1E1E;" parent="1" vertex="1">
                    <mxGeometry x="-352" y="680" width="150" height="30" as="geometry"/>
                </mxCell>
                <mxCell id="108" value="" style="edgeStyle=none;html=1;fontFamily=Helvetica;fontSize=12;" parent="1" source="102" target="106" edge="1">
                    <mxGeometry relative="1" as="geometry"/>
                </mxCell>
                <mxCell id="102" value="&lt;div style=&quot;color: rgb(212, 212, 212); background-color: rgb(30, 30, 30); font-family: Consolas, &amp;quot;Courier New&amp;quot;, monospace; line-height: 19px;&quot;&gt;doctor_type == &lt;span style=&quot;color: #569cd6;&quot;&gt;None&lt;/span&gt;&lt;/div&gt;" style="shape=hexagon;perimeter=hexagonPerimeter2;whiteSpace=wrap;html=1;fixedSize=1;fontFamily=Helvetica;fontSize=12;fillColor=#1E1E1E;" parent="1" vertex="1">
                    <mxGeometry x="-149.5" y="680" width="150" height="30" as="geometry"/>
                </mxCell>
                <mxCell id="105" value="retrieve_doctor_type" style="rounded=1;whiteSpace=wrap;html=1;fontFamily=Helvetica;fontSize=12;fillColor=#6d8764;fontColor=#ffffff;strokeColor=#3A5431;" parent="1" vertex="1">
                    <mxGeometry x="-337.62" y="740" width="121.25" height="30" as="geometry"/>
                </mxCell>
                <mxCell id="106" value="ask_doctor_type" style="rounded=1;whiteSpace=wrap;html=1;fontFamily=Helvetica;fontSize=12;fillColor=#6d8764;fontColor=#ffffff;strokeColor=#3A5431;" parent="1" vertex="1">
                    <mxGeometry x="-127.62" y="740" width="106.25" height="30" as="geometry"/>
                </mxCell>
                <mxCell id="109" value="Here it tries first to get doctor type from API. If it fails, it asks the user." style="text;html=1;strokeColor=none;fillColor=none;align=center;verticalAlign=middle;whiteSpace=wrap;rounded=0;fontFamily=Helvetica;fontSize=12;" parent="1" vertex="1">
                    <mxGeometry x="-436.99" y="480" width="159.37" height="30" as="geometry"/>
                </mxCell>
                <mxCell id="114" value="" style="edgeStyle=none;html=1;fontFamily=Helvetica;fontSize=12;" parent="1" source="110" target="112" edge="1">
                    <mxGeometry relative="1" as="geometry"/>
                </mxCell>
                <mxCell id="110" value="change_to_chosen_doctor" style="rounded=1;whiteSpace=wrap;html=1;fontFamily=Helvetica;fontSize=12;fillColor=#f0a30a;fontColor=#000000;strokeColor=#BD7000;" parent="1" vertex="1">
                    <mxGeometry x="815" y="620" width="150" height="30" as="geometry"/>
                </mxCell>
                <mxCell id="115" value="" style="edgeStyle=none;html=1;fontFamily=Helvetica;fontSize=12;" parent="1" source="111" target="113" edge="1">
                    <mxGeometry relative="1" as="geometry"/>
                </mxCell>
                <mxCell id="111" value="cancel_search_results" style="rounded=1;whiteSpace=wrap;html=1;fontFamily=Helvetica;fontSize=12;fillColor=#f0a30a;fontColor=#000000;strokeColor=#BD7000;" parent="1" vertex="1">
                    <mxGeometry x="1005" y="620" width="130" height="30" as="geometry"/>
                </mxCell>
                <mxCell id="119" value="" style="edgeStyle=none;html=1;fontFamily=Helvetica;fontSize=12;" parent="1" source="112" target="118" edge="1">
                    <mxGeometry relative="1" as="geometry"/>
                </mxCell>
                <mxCell id="112" value="&lt;div style=&quot;color: rgb(212, 212, 212); background-color: rgb(30, 30, 30); font-family: Consolas, &amp;quot;Courier New&amp;quot;, monospace; line-height: 19px;&quot;&gt;confirmation == &lt;span style=&quot;color: #569cd6;&quot;&gt;True&lt;/span&gt;&lt;/div&gt;" style="shape=hexagon;perimeter=hexagonPerimeter2;whiteSpace=wrap;html=1;fixedSize=1;fontFamily=Helvetica;fontSize=12;fillColor=#1E1E1E;" parent="1" vertex="1">
                    <mxGeometry x="810" y="700" width="160" height="30" as="geometry"/>
                </mxCell>
                <mxCell id="121" value="" style="edgeStyle=none;html=1;fontFamily=Helvetica;fontSize=12;" parent="1" source="113" target="120" edge="1">
                    <mxGeometry relative="1" as="geometry"/>
                </mxCell>
                <mxCell id="113" value="&lt;div style=&quot;background-color: rgb(30, 30, 30); font-family: Consolas, &amp;quot;Courier New&amp;quot;, monospace; line-height: 19px;&quot;&gt;&lt;span style=&quot;color: rgb(212, 212, 212);&quot;&gt;confirmation == &lt;/span&gt;&lt;font color=&quot;#569cd6&quot;&gt;False&lt;/font&gt;&lt;/div&gt;" style="shape=hexagon;perimeter=hexagonPerimeter2;whiteSpace=wrap;html=1;fixedSize=1;fontFamily=Helvetica;fontSize=12;fillColor=#1E1E1E;" parent="1" vertex="1">
                    <mxGeometry x="990" y="700" width="160" height="30" as="geometry"/>
                </mxCell>
                <mxCell id="118" value="a_change_doctor" style="rounded=1;whiteSpace=wrap;html=1;fontFamily=Helvetica;fontSize=12;fillColor=#6d8764;fontColor=#ffffff;strokeColor=#3A5431;" parent="1" vertex="1">
                    <mxGeometry x="835" y="790" width="110" height="30" as="geometry"/>
                </mxCell>
                <mxCell id="120" value="clear_search" style="rounded=1;whiteSpace=wrap;html=1;fontFamily=Helvetica;fontSize=12;fillColor=#6d8764;fontColor=#ffffff;strokeColor=#3A5431;" parent="1" vertex="1">
                    <mxGeometry x="1027.5" y="790" width="85" height="30" as="geometry"/>
                </mxCell>
                <mxCell id="128" value="" style="edgeStyle=none;html=1;entryX=0;entryY=0.5;entryDx=0;entryDy=0;" edge="1" parent="1" source="125" target="42">
                    <mxGeometry relative="1" as="geometry"/>
                </mxCell>
                <mxCell id="125" value="ask_doctor_gender" style="rounded=1;whiteSpace=wrap;html=1;fontFamily=Helvetica;fontSize=12;fillColor=#6d8764;fontColor=#ffffff;strokeColor=#3A5431;" vertex="1" parent="1">
                    <mxGeometry x="-99.38" y="510" width="117.5" height="30" as="geometry"/>
                </mxCell>
                <mxCell id="126" value="&lt;div style=&quot;color: rgb(212, 212, 212); background-color: rgb(30, 30, 30); font-family: Consolas, &amp;quot;Courier New&amp;quot;, monospace; line-height: 19px;&quot;&gt;&lt;div style=&quot;line-height: 19px;&quot;&gt;doctor_gender == &lt;span style=&quot;color: #569cd6;&quot;&gt;None&lt;/span&gt;&lt;/div&gt;&lt;/div&gt;" style="shape=hexagon;perimeter=hexagonPerimeter2;whiteSpace=wrap;html=1;fixedSize=1;fontFamily=Helvetica;fontSize=12;fillColor=#1E1E1E;" vertex="1" parent="1">
                    <mxGeometry x="-120.63" y="435" width="160" height="30" as="geometry"/>
                </mxCell>
                <mxCell id="129" value="" style="edgeStyle=none;html=1;fontFamily=Helvetica;fontSize=12;entryX=0.5;entryY=0;entryDx=0;entryDy=0;" edge="1" parent="1" source="32" target="50">
                    <mxGeometry relative="1" as="geometry"/>
                </mxCell>
            </root>
        </mxGraphModel>
    </diagram>
</mxfile>